<svg width="280" height="247" viewBox="0 0 280 247" fill="none" xmlns="http://www.w3.org/2000/svg">
<g clip-path="url(#clip0_3550_12532)">
<path d="M277.769 242.542C277.28 243.226 276.786 243.904 276.297 244.578C274.891 245.547 273.223 246.064 271.515 246.061H8.48499C6.8537 246.062 5.257 245.59 3.8882 244.703C3.43393 244.104 2.98479 243.5 2.53052 242.896L2.98478 242.647L136.142 168.838C137.324 168.185 138.651 167.841 140.001 167.84C141.352 167.838 142.68 168.178 143.863 168.828L277.32 242.292L277.769 242.542Z" fill="#3B82F6"/>
<path d="M271.515 87.3442L156.112 20.698C151.258 17.8949 145.752 16.4178 140.147 16.415C134.542 16.4123 129.035 17.8839 124.178 20.6823L8.48485 87.3442C6.2355 87.3474 4.0792 88.2423 2.48867 89.8329C0.898146 91.4234 0.00318202 93.5797 0 95.829V237.576C0.00262073 239.825 0.8974 241.982 2.48805 243.573C4.0787 245.163 6.23533 246.058 8.48485 246.061H271.515C273.764 246.057 275.92 245.162 277.511 243.571C279.101 241.981 279.996 239.825 280 237.576V95.829C279.997 93.5797 279.102 91.4234 277.511 89.8328C275.921 88.2423 273.764 87.3474 271.515 87.3442ZM279.002 237.576C278.997 239.56 278.207 241.461 276.804 242.864C275.401 244.267 273.499 245.058 271.515 245.063H8.48485C6.50037 245.059 4.59819 244.269 3.19495 242.866C1.79171 241.463 1.00179 239.56 0.998217 237.576V95.829C1.00063 93.8442 1.79018 91.9413 3.19367 90.5378C4.59716 89.1344 6.50001 88.3448 8.48485 88.3424L124.178 21.6805C129.035 18.8821 134.542 17.4105 140.147 17.4133C145.752 17.416 151.258 18.8931 156.112 21.6962L271.515 88.3424C273.5 88.3448 275.403 89.1344 276.806 90.5378C278.21 91.9413 278.999 93.8442 279.002 95.829V237.576Z" fill="#3F3D56"/>
<path d="M140.15 167.541C139.28 167.544 138.417 167.399 137.596 167.112L137.445 167.059L137.415 166.723C137.321 166.77 137.226 166.814 137.131 166.856L137.03 166.9L136.93 166.856C136.719 166.763 136.51 166.659 136.309 166.545L44.4207 114.911V9.48302C44.4234 7.03499 45.3971 4.688 47.1281 2.95698C48.8591 1.22596 51.2061 0.252259 53.6542 0.249512H226.346C228.794 0.252259 231.141 1.22596 232.872 2.95698C234.603 4.688 235.577 7.03499 235.579 9.48302V115.046L235.452 115.117L143.99 166.546C142.816 167.2 141.494 167.543 140.15 167.541Z" fill="white"/>
<path d="M140.15 167.79C139.252 167.794 138.361 167.644 137.513 167.348L137.211 167.241L137.198 167.099L137.03 167.173L136.829 167.084C136.611 166.989 136.395 166.88 136.187 166.763L44.1711 115.057V9.48307C44.174 6.96887 45.174 4.55848 46.9518 2.78067C48.7296 1.00287 51.14 0.00284546 53.6542 0H226.346C228.86 0.00285601 231.27 1.00288 233.048 2.78068C234.826 4.55848 235.826 6.96888 235.829 9.48307V115.192L144.113 166.763C142.901 167.439 141.537 167.792 140.15 167.79ZM138.147 166.504C139.981 167.031 141.95 166.811 143.624 165.893L234.831 114.608V9.48307C234.828 7.23352 233.933 5.07684 232.343 3.48617C230.752 1.8955 228.595 1.00075 226.346 0.998218H53.6542C51.4047 1.00074 49.248 1.89549 47.6573 3.48616C46.0666 5.07683 45.1719 7.23352 45.1694 9.48307V114.473L51.1535 117.834L136.676 165.893C136.792 165.959 136.91 166.02 137.03 166.078C137.15 166.02 137.268 165.959 137.384 165.893L138.056 165.515L138.147 166.504Z" fill="#3F3D56"/>
<path d="M277.789 91.0273L241.569 111.391L235.33 114.9L143.868 166.328C142.731 166.962 141.451 167.293 140.15 167.291C139.309 167.294 138.473 167.153 137.679 166.877C137.458 166.806 137.242 166.723 137.03 166.627C136.826 166.537 136.626 166.438 136.431 166.328L50.9091 118.269L44.6703 114.765L2.28598 90.9474C2.17073 90.8813 2.0862 90.7725 2.0507 90.6445C2.0152 90.5165 2.03161 90.3796 2.09638 90.2636C2.16132 90.1486 2.26927 90.064 2.39652 90.0284C2.52377 89.9929 2.65992 90.0092 2.7751 90.074L44.6703 113.617L50.9091 117.121L136.921 165.454C137.206 165.615 137.503 165.753 137.809 165.869C137.939 165.919 138.074 165.963 138.208 166.003C139.063 166.266 139.961 166.352 140.85 166.258C141.738 166.163 142.599 165.89 143.379 165.454L235.33 113.757L241.569 110.248L277.3 90.1588C277.357 90.1267 277.42 90.1061 277.485 90.0983C277.55 90.0904 277.615 90.0955 277.678 90.1131C277.741 90.1307 277.8 90.1605 277.852 90.2009C277.903 90.2413 277.946 90.2915 277.979 90.3485C278.011 90.4055 278.031 90.4683 278.039 90.5333C278.047 90.5982 278.042 90.6641 278.024 90.7271C278.007 90.7902 277.977 90.8491 277.936 90.9006C277.896 90.9521 277.846 90.9952 277.789 91.0273Z" fill="#3F3D56"/>
<path d="M81.8913 32.9413H67.9162C66.8572 32.9413 65.8416 32.5206 65.0928 31.7718C64.344 31.023 63.9233 30.0074 63.9233 28.9484C63.9233 27.8895 64.344 26.8739 65.0928 26.125C65.8416 25.3762 66.8572 24.9556 67.9162 24.9556H81.8913C82.9502 24.9556 83.9658 25.3762 84.7146 26.125C85.4635 26.8739 85.8841 27.8895 85.8841 28.9484C85.8841 30.0074 85.4635 31.023 84.7146 31.7718C83.9658 32.5206 82.9502 32.9413 81.8913 32.9413Z" fill="#3B82F6"/>
<path d="M98.3619 46.4169H67.9162C66.8572 46.4169 65.8416 45.9962 65.0928 45.2474C64.344 44.4986 63.9233 43.483 63.9233 42.424C63.9233 41.365 64.344 40.3494 65.0928 39.6006C65.8416 38.8518 66.8572 38.4312 67.9162 38.4312H98.3619C99.4208 38.4312 100.436 38.8518 101.185 39.6006C101.934 40.3494 102.355 41.365 102.355 42.424C102.355 43.483 101.934 44.4986 101.185 45.2474C100.436 45.9962 99.4208 46.4169 98.3619 46.4169Z" fill="#E6E6E6"/>
<path d="M183.422 82.3529H97.0766C96.0176 82.3529 95.002 81.9323 94.2532 81.1834C93.5044 80.4346 93.0837 79.419 93.0837 78.3601C93.0837 77.3011 93.5044 76.2855 94.2532 75.5367C95.002 74.7879 96.0176 74.3672 97.0766 74.3672H183.422C184.481 74.3672 185.497 74.7879 186.246 75.5367C186.995 76.2855 187.415 77.3011 187.415 78.3601C187.415 79.419 186.995 80.4346 186.246 81.1834C185.497 81.9323 184.481 82.3529 183.422 82.3529Z" fill="#3B82F6"/>
<path d="M191.408 97.8253H88.5919C87.5329 97.8253 86.5173 97.4047 85.7685 96.6559C85.0197 95.907 84.599 94.8914 84.599 93.8325C84.599 92.7735 85.0197 91.7579 85.7685 91.0091C86.5173 90.2603 87.5329 89.8396 88.5919 89.8396H191.408C192.467 89.8396 193.483 90.2603 194.232 91.0091C194.98 91.7579 195.401 92.7735 195.401 93.8325C195.401 94.8914 194.98 95.907 194.232 96.6559C193.483 97.4047 192.467 97.8253 191.408 97.8253Z" fill="#E6E6E6"/>
<path d="M191.408 112.799H88.5919C87.5329 112.799 86.5173 112.378 85.7685 111.629C85.0197 110.88 84.599 109.865 84.599 108.806C84.599 107.747 85.0197 106.731 85.7685 105.982C86.5173 105.234 87.5329 104.813 88.5919 104.813H191.408C192.467 104.813 193.483 105.234 194.232 105.982C194.98 106.731 195.401 107.747 195.401 108.806C195.401 109.865 194.98 110.88 194.232 111.629C193.483 112.378 192.467 112.799 191.408 112.799Z" fill="#E6E6E6"/>
</g>
<defs>
<clipPath id="clip0_3550_12532">
<rect width="280" height="246.061" fill="white"/>
</clipPath>
</defs>
</svg>
