<svg width="240" height="217" viewBox="0 0 240 217" fill="none" xmlns="http://www.w3.org/2000/svg">
<g id="undraw_mail_sent_re_0ofv 1" clip-path="url(#clip0_3532_4030)">
<path id="Vector" d="M237.894 83.3104C237.808 83.3105 237.725 83.2841 237.654 83.235L121.208 2.13874C120.854 1.8931 120.433 1.76182 120.002 1.76256C119.57 1.76329 119.15 1.896 118.796 2.14285L3.18921 83.2341C3.09777 83.2983 2.9846 83.3235 2.87459 83.3042C2.76458 83.2849 2.66674 83.2226 2.6026 83.1312C2.53847 83.0397 2.51328 82.9266 2.53259 82.8166C2.55189 82.7066 2.61411 82.6087 2.70555 82.5446L118.313 1.4533C118.808 1.10776 119.397 0.922017 120 0.921025C120.604 0.920032 121.193 1.10384 121.69 1.44775L238.135 82.5437C238.209 82.595 238.264 82.6684 238.293 82.7533C238.322 82.8381 238.323 82.93 238.296 83.0155C238.269 83.1011 238.216 83.1758 238.144 83.2288C238.071 83.2819 237.984 83.3105 237.894 83.3104Z" fill="#3F3D56"/>
<path id="Vector_2" d="M9.79535 86.1851L120.116 4.42383L231.274 92.0028L125.8 154.529L68.5372 141.476L9.79535 86.1851Z" fill="#E6E6E6"/>
<path id="Vector_3" d="M73.3707 193.149H18.8695C18.5349 193.149 18.2034 193.084 17.8941 192.956C17.5848 192.828 17.3037 192.641 17.0669 192.404C16.8302 192.168 16.6423 191.887 16.5142 191.578C16.386 191.269 16.32 190.937 16.32 190.603C16.32 190.268 16.386 189.937 16.5142 189.627C16.6423 189.318 16.8302 189.038 17.0669 188.801C17.3037 188.565 17.5848 188.377 17.8941 188.249C18.2034 188.122 18.5349 188.056 18.8695 188.056H73.3707C73.7054 188.056 74.0368 188.122 74.3461 188.249C74.6554 188.377 74.9365 188.565 75.1733 188.801C75.4101 189.038 75.598 189.318 75.7261 189.627C75.8543 189.937 75.9203 190.268 75.9203 190.603C75.9203 190.937 75.8543 191.269 75.7261 191.578C75.598 191.887 75.4101 192.168 75.1733 192.404C74.9365 192.641 74.6554 192.828 74.3461 192.956C74.0368 193.084 73.7054 193.149 73.3707 193.149Z" fill="#3B82F6"/>
<path id="Vector_4" d="M38.4234 182.202H18.8695C18.5349 182.202 18.2034 182.136 17.8941 182.009C17.5848 181.881 17.3037 181.693 17.0669 181.457C16.8302 181.22 16.6423 180.94 16.5142 180.63C16.386 180.321 16.32 179.99 16.32 179.655C16.32 179.321 16.386 178.989 16.5142 178.68C16.6423 178.371 16.8302 178.09 17.0669 177.854C17.3037 177.617 17.5848 177.43 17.8941 177.302C18.2034 177.174 18.5349 177.109 18.8695 177.109H38.4234C38.758 177.109 39.0895 177.174 39.3988 177.302C39.7081 177.43 39.9892 177.617 40.2259 177.854C40.4627 178.09 40.6506 178.371 40.7788 178.68C40.9069 178.989 40.9729 179.321 40.9729 179.655C40.9729 179.99 40.9069 180.321 40.7788 180.63C40.6506 180.94 40.4627 181.22 40.2259 181.457C39.9892 181.693 39.7081 181.881 39.3988 182.009C39.0895 182.136 38.758 182.202 38.4234 182.202Z" fill="#3B82F6"/>
<path id="Vector_5" d="M121.667 131.725C121.253 131.725 120.843 131.645 120.459 131.488L52.4211 103.257V14.8893C52.4221 14.1079 52.7329 13.3587 53.2854 12.8062C53.8379 12.2536 54.5871 11.9428 55.3685 11.9419H185.895C186.676 11.9428 187.425 12.2536 187.978 12.8062C188.53 13.3587 188.841 14.1079 188.842 14.8893V103.319L188.714 103.374L122.912 131.475C122.518 131.64 122.095 131.725 121.667 131.725Z" fill="white"/>
<path id="Vector_6" d="M121.667 131.935C121.226 131.936 120.788 131.85 120.379 131.683L52.2106 103.398V14.8893C52.2115 14.0521 52.5445 13.2494 53.1365 12.6574C53.7286 12.0654 54.5312 11.7324 55.3685 11.7314H185.895C186.732 11.7324 187.535 12.0654 188.127 12.6574C188.719 13.2494 189.052 14.0521 189.053 14.8893V103.458L122.995 131.668C122.575 131.845 122.123 131.936 121.667 131.935ZM53.0527 102.835L120.7 130.905C121.331 131.161 122.038 131.157 122.666 130.893L188.211 102.902V14.8893C188.21 14.2754 187.966 13.6868 187.532 13.2526C187.097 12.8185 186.509 12.5743 185.895 12.5736H55.3685C54.7545 12.5743 54.1659 12.8185 53.7318 13.2526C53.2976 13.6868 53.0534 14.2754 53.0527 14.8893L53.0527 102.835Z" fill="#3F3D56"/>
<path id="Vector_7" d="M237.053 82.4684H236.968L188.632 103.108L122.497 131.348C122.238 131.457 121.961 131.514 121.681 131.515C121.4 131.517 121.123 131.463 120.863 131.357L52.6316 103.049L3.10732 82.5021L3.03166 82.4684H2.94737C2.16594 82.4693 1.41677 82.7801 0.864219 83.3326C0.311668 83.8852 0.000867053 84.6343 0 85.4158V213.416C0.000868165 214.197 0.311669 214.946 0.864219 215.499C1.41677 216.051 2.16594 216.362 2.94737 216.363H237.053C237.834 216.362 238.583 216.051 239.136 215.499C239.688 214.946 239.999 214.197 240 213.416V85.4158C239.999 84.6343 239.688 83.8852 239.136 83.3326C238.583 82.7801 237.834 82.4693 237.053 82.4684ZM239.158 213.416C239.158 213.974 238.936 214.509 238.541 214.904C238.146 215.299 237.611 215.521 237.053 215.521H2.94737C2.38909 215.521 1.85374 215.299 1.45897 214.904C1.06421 214.509 0.842328 213.974 0.842105 213.416V85.4158C0.842869 84.8713 1.05405 84.3483 1.43149 83.9559C1.80893 83.5636 2.32341 83.3323 2.86739 83.3105L52.6316 103.959L120.539 132.136C121.274 132.435 122.098 132.43 122.83 132.123L188.632 104.022L237.137 83.3105C237.68 83.3339 238.193 83.5658 238.569 83.958C238.946 84.3501 239.157 84.8722 239.158 85.4158V213.416Z" fill="#3F3D56"/>
<path id="Vector_8" d="M120.987 106.667C118.476 106.672 116.03 105.86 114.021 104.353L113.896 104.259L87.6599 84.1721C86.4448 83.2411 85.4251 82.0799 84.6588 80.7548C83.8925 79.4297 83.3947 77.9667 83.1938 76.4492C82.9929 74.9317 83.0929 73.3895 83.4881 71.9107C83.8832 70.4319 84.5657 69.0454 85.4967 67.8303C86.4277 66.6153 87.5889 65.5955 88.914 64.8292C90.239 64.0629 91.7021 63.5651 93.2196 63.3642C94.737 63.1634 96.2792 63.2633 97.758 63.6585C99.2369 64.0536 100.623 64.7361 101.838 65.6671L118.832 78.6977L158.991 26.3244C159.923 25.1096 161.084 24.0903 162.41 23.3244C163.735 22.5586 165.198 22.0613 166.716 21.861C168.233 21.6607 169.776 21.7612 171.254 22.1569C172.733 22.5526 174.119 23.2357 175.334 24.1671L175.084 24.5061L175.34 24.172C177.791 26.0552 179.394 28.8335 179.798 31.8972C180.203 34.961 179.375 38.0601 177.498 40.5146L130.261 102.118C129.168 103.538 127.763 104.687 126.155 105.475C124.547 106.264 122.779 106.672 120.987 106.667Z" fill="#3B82F6"/>
</g>
<defs>
<clipPath id="clip0_3532_4030">
<rect width="240" height="215.442" fill="white" transform="translate(0 0.921021)"/>
</clipPath>
</defs>
</svg>
