<svg width="21" height="21" viewBox="0 0 21 21" fill="none" xmlns="http://www.w3.org/2000/svg">
<g id="simple-icons/google" clip-path="url(#clip0_3646_452)">
<path id="Vector" d="M10.9 9.16055V11.8939H17.4334C17.2334 13.4272 16.7225 14.5497 15.9442 15.338C14.9884 16.2939 13.5 17.338 10.9 17.338C6.87753 17.338 3.73336 14.0939 3.73336 10.0714C3.73336 6.04888 6.87753 2.80471 10.9 2.80471C13.0667 2.80471 14.6559 3.66055 15.8225 4.76055L17.745 2.83805C16.1225 1.26055 13.9442 0.0605469 10.9 0.0605469C5.38919 0.0605469 0.755859 4.54971 0.755859 10.0605C0.755859 15.5714 5.38919 20.0605 10.9 20.0605C13.8775 20.0605 16.1225 19.083 17.8775 17.2605C19.6775 15.4605 20.2442 12.9164 20.2442 10.8714C20.2442 10.238 20.2 9.64888 20.1 9.16055H10.9Z" fill="#F8FAFC"/>
</g>
<defs>
<clipPath id="clip0_3646_452">
<rect width="20" height="20" fill="white" transform="translate(0.5 0.0605469)"/>
</clipPath>
</defs>
</svg>
