<svg width="40" height="40" viewBox="0 0 40 40" fill="none" xmlns="http://www.w3.org/2000/svg">
<g id="App/Hubspot">
<path id="Vector" d="M27.6921 14.3471V10.3943C28.213 10.1497 28.6541 9.76179 28.9642 9.27551C29.2743 8.78923 29.4407 8.22458 29.4442 7.64711V7.55405C29.442 6.7468 29.1218 5.97321 28.5536 5.40226C27.9854 4.83131 27.2154 4.50939 26.4116 4.50683H26.319C25.5155 4.50939 24.7456 4.83112 24.1775 5.40177C23.6093 5.97242 23.289 6.74565 23.2865 7.55267V7.64572C23.289 8.21984 23.4528 8.78159 23.7591 9.26635C24.0654 9.75111 24.5016 10.1392 25.0178 10.386L25.0357 10.3943V14.3555C23.531 14.5864 22.1143 15.2142 20.9301 16.1749L20.9467 16.161L10.122 7.69572C10.3281 6.92024 10.26 6.09698 9.92935 5.36629C9.59869 4.63559 9.02592 4.04272 8.30872 3.68874C7.59151 3.33477 6.77426 3.24161 5.99632 3.42515C5.21837 3.60869 4.52789 4.05757 4.04261 4.69525C3.55732 5.33293 3.30728 6.11993 3.3351 6.92207C3.36293 7.72421 3.6669 8.49183 4.1952 9.09404C4.72349 9.69625 5.4434 10.0958 6.23218 10.2245C7.02096 10.3532 7.82977 10.2031 8.52071 9.79989L8.50411 9.80822L19.1477 18.1291C18.2068 19.5459 17.7071 21.2121 17.7123 22.9152C17.71 24.71 18.2644 26.461 19.2984 27.9249L19.2804 27.8971L16.0419 31.1513C15.7826 31.0672 15.5122 31.0228 15.2398 31.0194H15.2371C14.681 31.0194 14.1375 31.185 13.6752 31.4952C13.2129 31.8055 12.8526 32.2465 12.6398 32.7624C12.427 33.2784 12.3713 33.8461 12.4798 34.3938C12.5883 34.9416 12.856 35.4447 13.2492 35.8396C13.6424 36.2345 14.1433 36.5034 14.6886 36.6123C15.2339 36.7213 15.7992 36.6654 16.3129 36.4517C16.8266 36.2379 17.2656 35.876 17.5746 35.4117C17.8835 34.9473 18.0483 34.4014 18.0483 33.843C18.0446 33.562 17.998 33.2833 17.9101 33.0166L17.917 33.036L21.121 29.818C22.1653 30.6183 23.3776 31.1689 24.6656 31.4279C25.9537 31.6868 27.2836 31.6474 28.5541 31.3124C29.8247 30.9775 31.0025 30.356 31.9979 29.495C32.9933 28.6341 33.7802 27.5566 34.2985 26.3443C34.8169 25.132 35.0532 23.8169 34.9895 22.4991C34.9257 21.1813 34.5636 19.8955 33.9306 18.7394C33.2976 17.5833 32.4105 16.5874 31.3366 15.8275C30.2628 15.0676 29.0305 14.5637 27.7336 14.3541L27.6838 14.3471H27.6921ZM26.3591 27.3721C25.4829 27.3697 24.627 27.1064 23.8996 26.6157C23.1722 26.125 22.6059 25.4288 22.2723 24.615C21.9386 23.8013 21.8525 22.9064 22.0248 22.0435C22.1972 21.1806 22.6202 20.3884 23.2406 19.7669C23.861 19.1453 24.6508 18.7224 25.5104 18.5514C26.3699 18.3804 27.2606 18.4692 28.07 18.8063C28.8794 19.1435 29.5711 19.714 30.0579 20.4458C30.5447 21.1776 30.8046 22.0379 30.8049 22.918V22.9207C30.805 23.5057 30.6905 24.085 30.4677 24.6255C30.2449 25.166 29.9182 25.6571 29.5064 26.0707C29.0945 26.4844 28.6056 26.8124 28.0675 27.0362C27.5293 27.26 26.9526 27.3751 26.3702 27.3749L26.3591 27.3721Z" fill="#FF7A59"/>
</g>
</svg>
