<svg width="138" height="32" viewBox="0 0 138 32" fill="none" xmlns="http://www.w3.org/2000/svg">
<g clip-path="url(#clip0_2390_19253)">
<path fill-rule="evenodd" clip-rule="evenodd" d="M13.977 0.125915C10.4344 0.60908 7.16997 2.24764 4.62476 4.82007C-1.5725 11.0835 -1.52839 21.0717 4.72407 27.2854C7.03905 29.5858 9.70776 31.0018 13.0952 31.7269C14.4763 32.0225 17.6928 32.0223 19.0931 31.7264C22.5605 30.9938 24.9874 29.6932 27.426 27.2606C29.8389 24.8536 31.1573 22.4587 31.867 19.1938C32.2402 17.4771 32.2402 14.5223 31.867 12.8055C31.4103 10.7046 30.6023 8.79862 29.4028 6.99396C28.6747 5.89846 26.2418 3.47982 25.1497 2.76586C23.3705 1.6026 21.2285 0.716332 19.1668 0.290252C18.0426 0.0580465 15.1472 -0.0337329 13.977 0.125915ZM54.6645 5.0259C52.7268 5.90057 52.9741 8.61424 55.0458 9.21274C56.3079 9.57728 57.6353 9.0831 58.1318 8.06391C58.7116 6.8737 58.2812 5.65219 57.0625 5.02918C56.4846 4.7338 55.3151 4.73216 54.6645 5.0259ZM101.763 4.96635C100.013 5.73752 99.8892 8.18089 101.557 9.0266C103.038 9.77808 104.918 9.09342 105.32 7.65635C105.475 7.10039 105.476 6.96618 105.323 6.42089C105.16 5.83786 104.676 5.28846 104.095 5.0259C103.543 4.7767 102.267 4.74411 101.763 4.96635ZM8.92493 5.58701C8.88165 5.62991 8.84721 9.36184 8.84827 13.8801C8.85051 22.9304 8.86006 23.0691 9.56799 24.3891C10.322 25.795 12.0088 26.9262 13.5347 27.0493L14.2719 27.1087L14.2701 18.741C14.2682 9.6162 14.2615 9.51211 13.5905 8.2797C13.1562 7.48181 12.211 6.54115 11.4672 6.16665C10.5204 5.68981 9.13842 5.37474 8.92493 5.58701ZM16.7488 12.032V18.5552L18.2673 18.4881C20.6447 18.383 21.9369 17.8381 23.3378 16.3498C26.243 13.2634 25.3929 8.26763 21.6278 6.30133C20.5218 5.72381 19.5579 5.5127 18.0168 5.51059L16.7488 5.50883V12.032ZM93.4155 15.4722V24.6151H95.5386H97.6616V15.4722V6.32934H95.5386H93.4155V15.4722ZM38.2155 15.9411V24.6151H40.3386H42.4616V21.5247V18.4341L44.5552 18.3684C46.7841 18.2982 47.5781 18.1528 48.6337 17.6212C49.3247 17.2732 50.2811 16.4147 50.6873 15.7777C51.975 13.7584 51.7259 10.7999 50.125 9.09916C49.3077 8.23082 48.5824 7.81306 47.3465 7.49893C46.5232 7.28969 46.0329 7.26707 42.3248 7.26707H38.2155V15.9411ZM68.5502 10.6802C67.6236 10.8334 66.6619 11.3347 65.9629 12.0287L65.3437 12.6438V11.7137V10.7836H63.2206H61.0975V20.9814V31.1792H63.2206H65.3437V26.9936V22.8081L65.845 23.283C67.03 24.4061 67.9446 24.7616 69.6488 24.7616C71.4663 24.7616 72.6867 24.2509 73.8478 23.0042C75.1549 21.6007 75.7232 19.9931 75.7232 17.6993C75.7232 15.3658 75.1297 13.7141 73.7947 12.3325C72.947 11.4551 71.8225 10.8617 70.6514 10.6738C69.7764 10.5335 69.4308 10.5346 68.5502 10.6802ZM82.7411 10.7153C79.9374 11.2577 78.1526 12.8944 77.4265 15.5894C77.1479 16.6233 77.1475 18.7732 77.4258 19.8092C78.26 22.9152 80.7629 24.764 84.1565 24.7809C85.5444 24.788 86.312 24.6228 87.5181 24.0578C88.9752 23.3754 90.2881 21.8549 90.7567 20.3074L90.8365 20.0436L88.558 20.045L86.2796 20.0466L86.0227 20.4408C85.413 21.3766 83.6519 21.6354 82.6096 20.9423C82.0985 20.6024 81.5855 19.7945 81.462 19.1352L81.3906 18.7543H86.2164H91.042L91.122 18.2249C91.2385 17.4521 91.0731 16.0106 90.7524 15.0033C90.1068 12.976 88.4114 11.3989 86.2862 10.8488C85.2795 10.5882 83.7047 10.5288 82.7411 10.7153ZM129.921 10.659C126.269 11.2512 124.086 13.8852 124.086 17.6993C124.086 20.6051 125.452 22.9832 127.739 24.0568C128.962 24.6312 129.71 24.7857 131.218 24.7754C132.298 24.768 132.67 24.7143 133.439 24.4541C135.198 23.859 136.525 22.7453 137.242 21.2638C137.873 19.9611 137.994 20.0436 135.45 20.0436H133.253L132.793 20.5629C132.236 21.1915 131.734 21.3743 130.737 21.3112C130.139 21.2733 129.881 21.1914 129.481 20.9122C128.927 20.5255 128.509 19.8717 128.384 19.1938L128.302 18.7543H133.151H138V17.5422C138 15.3229 137.453 13.8777 136.093 12.5087C135.269 11.6783 134.201 11.0828 133.03 10.8013C132.274 10.6193 130.629 10.5441 129.921 10.659ZM42.4616 12.8348V15.0033L43.8475 15.0026C45.4641 15.0019 45.9739 14.8875 46.5324 14.4001C47.2359 13.7864 47.3754 12.4293 46.8259 11.5457C46.3937 10.8508 45.8045 10.6663 44.0167 10.6663H42.4616V12.8348ZM114.747 10.9378C113.884 11.23 113.135 11.6978 112.693 12.22L112.405 12.5597V11.6717V10.7836H110.282H108.159V17.6993V24.6151H110.282H112.405V20.4968C112.405 17.5779 112.447 16.238 112.55 15.8961C112.737 15.2764 113.537 14.4739 114.133 14.3095C115.689 13.8801 117.116 14.5717 117.53 15.9558C117.68 16.459 117.713 17.2946 117.713 20.5924V24.6151H119.836H121.959L121.957 20.1315C121.955 15.2733 121.896 14.6619 121.313 13.4379C120.701 12.1522 119.545 11.2006 118.143 10.8299C117.187 10.5768 115.671 10.625 114.747 10.9378ZM53.7847 17.6993V24.6151H55.9078H58.0309V17.6993V10.7836H55.9078H53.7847V17.6993ZM100.728 17.6993V24.6151H102.851H104.974V17.6993V10.7836H102.851H100.728V17.6993ZM83.4321 14.0539C82.4985 14.2911 81.6817 15.1247 81.5415 15.9833L81.4718 16.4099H84.0751C85.6424 16.4099 86.7068 16.3643 86.7497 16.2954C86.8717 16.0993 86.583 15.2658 86.2617 14.8864C85.6743 14.1926 84.3821 13.8124 83.4321 14.0539ZM130.392 14.058C129.894 14.1786 129.375 14.4654 129.073 14.7871C128.805 15.072 128.335 16.0069 128.331 16.2634C128.329 16.3764 128.936 16.4099 130.982 16.4099H133.636V16.0536C133.636 14.7212 131.947 13.682 130.392 14.058ZM67.3702 14.4333C67.1548 14.495 66.6954 14.8199 66.3492 15.1554C65.6322 15.8501 65.3437 16.58 65.3437 17.6993C65.3437 18.8167 65.6324 19.5487 66.3459 20.2401C67.3077 21.1721 68.5163 21.3737 69.6819 20.7964C70.8623 20.2118 71.4035 19.2382 71.4035 17.6993C71.4035 16.123 70.8538 15.1455 69.6488 14.5794C69.0167 14.2825 68.1018 14.2237 67.3702 14.4333ZM18.7532 21.9114C17.5368 22.2791 16.85 23.1914 16.85 24.4392C16.85 25.1938 16.9912 25.5467 17.5295 26.1389C18.0552 26.7172 18.2312 26.8179 18.9483 26.9511C20.4134 27.223 21.7677 26.2459 22.0096 24.7425C22.2868 23.0195 20.4293 21.4047 18.7532 21.9114Z" fill="white"/>
</g>
<defs>
<clipPath id="clip0_2390_19253">
<rect width="138" height="32" fill="white"/>
</clipPath>
</defs>
</svg>
