<svg width="54" height="54" viewBox="0 0 54 54" fill="none" xmlns="http://www.w3.org/2000/svg">
<path fill-rule="evenodd" clip-rule="evenodd" d="M24.333 5.66634C14.0237 5.66634 5.66634 14.0237 5.66634 24.333C5.66634 34.6423 14.0237 42.9997 24.333 42.9997C34.6423 42.9997 42.9997 34.6423 42.9997 24.333C42.9997 14.0237 34.6423 5.66634 24.333 5.66634ZM0.333008 24.333C0.333008 11.0782 11.0782 0.333008 24.333 0.333008C37.5878 0.333008 48.333 11.0782 48.333 24.333C48.333 29.9997 46.3691 35.2077 43.0847 39.3135L52.8853 49.1141C53.9267 50.1555 53.9267 51.8439 52.8853 52.8853C51.8439 53.9267 50.1555 53.9267 49.1141 52.8853L39.3135 43.0847C35.2077 46.3691 29.9997 48.333 24.333 48.333C11.0782 48.333 0.333008 37.5878 0.333008 24.333ZM15.7807 15.7807C16.8221 14.7393 18.5106 14.7393 19.552 15.7807L24.333 20.5618L29.1141 15.7807C30.1555 14.7393 31.8439 14.7393 32.8853 15.7807C33.9267 16.8221 33.9267 18.5106 32.8853 19.552L28.1042 24.333L32.8853 29.1141C33.9267 30.1555 33.9267 31.8439 32.8853 32.8853C31.8439 33.9267 30.1555 33.9267 29.1141 32.8853L24.333 28.1042L19.552 32.8853C18.5106 33.9267 16.8221 33.9267 15.7807 32.8853C14.7393 31.8439 14.7393 30.1555 15.7807 29.1141L20.5618 24.333L15.7807 19.552C14.7393 18.5106 14.7393 16.8221 15.7807 15.7807Z" fill="#414346"/>
</svg>
