<svg width="120" height="120" viewBox="0 0 120 120" fill="none" xmlns="http://www.w3.org/2000/svg">
<g id="material-symbols:lock">
<path id="Vector" d="M30 110C27.25 110 24.8967 109.022 22.94 107.065C20.9833 105.108 20.0033 102.753 20 100V50C20 47.25 20.98 44.8967 22.94 42.94C24.9 40.9833 27.2533 40.0033 30 40H35V30C35 23.0833 37.4383 17.1883 42.315 12.315C47.1917 7.44167 53.0867 5.00333 60 5C66.9133 4.99667 72.81 7.435 77.69 12.315C82.57 17.195 85.0067 23.09 85 30V40H90C92.75 40 95.105 40.98 97.065 42.94C99.025 44.9 100.003 47.2533 100 50V100C100 102.75 99.0217 105.105 97.065 107.065C95.1083 109.025 92.7533 110.003 90 110H30ZM60 85C62.75 85 65.105 84.0217 67.065 82.065C69.025 80.1083 70.0033 77.7533 70 75C69.9967 72.2467 69.0183 69.8933 67.065 67.94C65.1117 65.9867 62.7567 65.0067 60 65C57.2433 64.9933 54.89 65.9733 52.94 67.94C50.99 69.9067 50.01 72.26 50 75C49.99 77.74 50.97 80.095 52.94 82.065C54.91 84.035 57.2633 85.0133 60 85ZM45 40H75V30C75 25.8333 73.5417 22.2917 70.625 19.375C67.7083 16.4583 64.1667 15 60 15C55.8333 15 52.2917 16.4583 49.375 19.375C46.4583 22.2917 45 25.8333 45 30V40Z" fill="#3B82F6"/>
</g>
</svg>
