<svg width="40" height="40" viewBox="0 0 40 40" fill="none" xmlns="http://www.w3.org/2000/svg">
<g id="App/Pipeline">
<path id="Vector" fill-rule="evenodd" clip-rule="evenodd" d="M17.8226 3.41686C14.1486 3.92169 10.7631 5.63374 8.12346 8.32153C1.69636 14.8659 1.74211 25.302 8.22646 31.7943C10.6273 34.198 13.395 35.6775 16.9081 36.4351C18.3404 36.744 21.6761 36.7437 23.1284 36.4346C26.7244 35.6691 29.2413 34.3102 31.7704 31.7685C34.2727 29.2535 35.64 26.7513 36.3761 23.3399C36.7631 21.5462 36.7631 18.4589 36.3761 16.6651C35.9024 14.4699 35.0644 12.4785 33.8205 10.5929C33.0654 9.44828 30.5422 6.92118 29.4096 6.17519C27.5644 4.95977 25.343 4.03375 23.2048 3.58856C22.0389 3.34594 19.0362 3.25005 17.8226 3.41686ZM12.5831 9.12287C12.5382 9.1677 12.5025 13.067 12.5036 17.7878C12.5059 27.2441 12.5158 27.389 13.25 28.7681C14.032 30.2371 15.7814 31.4191 17.3639 31.5477L18.1284 31.6098L18.1266 22.8668C18.1246 13.3328 18.1176 13.224 17.4217 11.9363C16.9713 11.1026 15.991 10.1198 15.2197 9.7285C14.2378 9.23028 12.8045 8.90107 12.5831 9.12287ZM20.6972 15.8569V22.6727L22.272 22.6025C24.7375 22.4928 26.0777 21.9234 27.5305 20.3683C30.5435 17.1435 29.6619 11.9237 25.7571 9.86922C24.6101 9.2658 23.6104 9.04522 22.0122 9.04302L20.6972 9.04118V15.8569ZM22.7759 26.1793C21.5144 26.5635 20.8021 27.5167 20.8021 28.8206C20.8021 29.6089 20.9486 29.9777 21.5068 30.5964C22.052 31.2007 22.2345 31.3059 22.9783 31.445C24.4976 31.7292 25.9022 30.7082 26.153 29.1374C26.4405 27.3372 24.5142 25.65 22.7759 26.1793Z" fill="#0F477B"/>
</g>
</svg>
