<svg width="104" height="24" viewBox="0 0 104 24" fill="none" xmlns="http://www.w3.org/2000/svg">
<g clip-path="url(#clip0_4001_27857)">
<path fill-rule="evenodd" clip-rule="evenodd" d="M10.4963 0.0946807C7.83583 0.457054 5.38426 1.68598 3.47283 3.6153C-1.18124 8.31288 -1.14811 15.804 3.54741 20.4643C5.28593 22.1896 7.2901 23.2516 9.83406 23.7954C10.8712 24.0171 13.2867 24.017 14.3383 23.7951C16.9424 23.2456 18.7649 22.2702 20.5963 20.4457C22.4083 18.6404 23.3985 16.8443 23.9314 14.3956C24.2117 13.108 24.2117 10.892 23.9314 9.60439C23.5885 8.02866 22.9816 6.59921 22.0809 5.24571C21.5341 4.42409 19.707 2.61011 18.8868 2.07464C17.5506 1.2022 15.9421 0.537493 14.3937 0.217933C13.5495 0.043779 11.3751 -0.0250555 10.4963 0.0946807ZM41.0521 3.76967C39.5969 4.42567 39.7826 6.46092 41.3385 6.9098C42.2862 7.18321 43.2831 6.81257 43.656 6.04818C44.0914 5.15552 43.7682 4.23938 42.853 3.77213C42.4189 3.55059 41.5407 3.54936 41.0521 3.76967ZM76.4226 3.72501C75.1086 4.30338 75.0153 6.13591 76.2675 6.7702C77.3802 7.3338 78.792 6.82031 79.0936 5.74251C79.2103 5.32554 79.2105 5.22488 79.0961 4.81591C78.9737 4.37864 78.6104 3.96659 78.1736 3.76967C77.7591 3.58277 76.8011 3.55833 76.4226 3.72501ZM6.70221 4.1905C6.6697 4.22268 6.64384 7.02163 6.64463 10.4103C6.64632 17.1981 6.65349 17.3021 7.18514 18.292C7.75142 19.3465 9.01817 20.1949 10.1641 20.2872L10.7177 20.3318L10.7164 14.056C10.715 7.21239 10.7099 7.13433 10.206 6.21002C9.87986 5.6116 9.16999 4.90611 8.61142 4.62523C7.9004 4.2676 6.86254 4.0313 6.70221 4.1905ZM12.5779 9.02426V13.9167L13.7182 13.8663C15.5036 13.7875 16.4741 13.3788 17.5261 12.2626C19.7079 9.94778 19.0695 6.20097 16.2419 4.72624C15.4113 4.2931 14.6874 4.13477 13.5301 4.13319L12.5779 4.13187V9.02426ZM70.1536 11.6044V18.4615H71.748H73.3424V11.6044V4.74725H71.748H70.1536V11.6044ZM28.6991 11.956V18.4615H30.2935H31.8879V16.1437V13.8258L33.4601 13.7765C35.134 13.7239 35.7303 13.6149 36.523 13.2162C37.042 12.9552 37.7602 12.3113 38.0652 11.8335C39.0323 10.319 38.8452 8.10013 37.643 6.82462C37.0292 6.17336 36.4845 5.86004 35.5563 5.62444C34.9381 5.46752 34.5699 5.45055 31.7851 5.45055H28.6991V11.956ZM51.4801 8.01037C50.7842 8.12527 50.062 8.50127 49.5371 9.0218L49.072 9.48308V8.78549V8.08791H47.4776H45.8832V15.7363V23.3846H47.4776H49.072V20.2454V17.1063L49.4485 17.4625C50.3384 18.3048 51.0253 18.5714 52.3051 18.5714C53.67 18.5714 54.5865 18.1884 55.4585 17.2534C56.4401 16.2008 56.8669 14.9951 56.8669 13.2747C56.8669 11.5246 56.4212 10.2858 55.4187 9.24958C54.782 8.59156 53.9375 8.14655 53.058 8.00563C52.401 7.90039 52.1414 7.90119 51.4801 8.01037ZM62.1373 8.03675C60.0317 8.44352 58.6913 9.67103 58.1461 11.6923C57.9368 12.4677 57.9366 14.0802 58.1455 14.8571C58.772 17.1866 60.6517 18.5733 63.2002 18.5859C64.2425 18.5912 64.819 18.4673 65.7247 18.0436C66.819 17.5318 67.805 16.3914 68.1569 15.2308L68.2169 15.033L66.5057 15.034L64.7946 15.0352L64.6017 15.3308C64.1439 16.0327 62.8213 16.2268 62.0385 15.707C61.6547 15.452 61.2694 14.8462 61.1767 14.3516L61.1231 14.0659H64.7472H68.3712L68.4312 13.6689C68.5187 13.0893 68.3945 12.0082 68.1537 11.2527C67.6688 9.73222 66.3956 8.54945 64.7996 8.13688C64.0436 7.94136 62.8609 7.89688 62.1373 8.03675ZM97.5685 7.99446C94.8263 8.43868 93.187 10.4142 93.187 13.2747C93.187 15.4541 94.213 17.2376 95.9298 18.0428C96.8484 18.4737 97.4104 18.5895 98.5429 18.5818C99.3543 18.5763 99.6332 18.536 100.211 18.3408C101.531 17.8945 102.529 17.0593 103.067 15.9481C103.541 14.9711 103.632 15.033 101.721 15.033H100.071L99.7257 15.4224C99.3075 15.8939 98.9303 16.0309 98.1817 15.9836C97.7325 15.9553 97.5388 15.8938 97.2382 15.6844C96.8221 15.3944 96.5085 14.904 96.4142 14.3956L96.353 14.0659H99.9946H103.636V13.1569C103.636 11.4924 103.225 10.4085 102.204 9.3818C101.585 8.75894 100.783 8.31235 99.904 8.10119C99.3358 7.96475 98.1007 7.90831 97.5685 7.99446ZM31.8879 9.62637V11.2527L32.9287 11.2522C34.1427 11.2517 34.5256 11.1659 34.945 10.8004C35.4733 10.34 35.578 9.3222 35.1654 8.65952C34.8408 8.13837 34.3984 8 33.0557 8H31.8879V9.62637ZM86.1735 8.2036C85.5255 8.42277 84.9627 8.77363 84.6307 9.16527L84.4147 9.42004V8.75402V8.08791H82.8203H81.2259V13.2747V18.4615H82.8203H84.4147V15.3728C84.4147 13.1836 84.4464 12.1787 84.5236 11.9223C84.6635 11.4576 85.2648 10.8556 85.7123 10.7324C86.8808 10.4103 87.9523 10.9291 88.263 11.9671C88.3759 12.3445 88.4007 12.9712 88.4007 15.4446V18.4615H89.9951H91.5895L91.588 15.0989C91.5863 11.4552 91.5421 10.9967 91.1046 10.0787C90.6449 9.11437 89.7764 8.4007 88.724 8.12264C88.0056 7.93284 86.8671 7.96897 86.1735 8.2036ZM40.3914 13.2747V18.4615H41.9858H43.5802V13.2747V8.08791H41.9858H40.3914V13.2747ZM75.6455 13.2747V18.4615H77.2399H78.8343V13.2747V8.08791H77.2399H75.6455V13.2747ZM62.6562 10.5407C61.9551 10.7186 61.3417 11.3437 61.2364 11.9877L61.184 12.3077H63.1391C64.3161 12.3077 65.1155 12.2735 65.1477 12.2218C65.2393 12.0747 65.0225 11.4496 64.7812 11.165C64.3401 10.6447 63.3697 10.3596 62.6562 10.5407ZM97.9229 10.5437C97.5485 10.6342 97.1586 10.8493 96.9318 11.0905C96.7309 11.3043 96.3781 12.0054 96.3747 12.1978C96.3732 12.2825 96.8294 12.3077 98.3657 12.3077H100.359V12.0404C100.359 11.0411 99.0902 10.2617 97.9229 10.5437ZM50.5939 10.8252C50.4322 10.8715 50.0871 11.1152 49.8272 11.3668C49.2887 11.8878 49.072 12.4353 49.072 13.2747C49.072 14.1128 49.2889 14.6618 49.8247 15.1803C50.5469 15.8793 51.4546 16.0305 52.3299 15.5975C53.2164 15.1591 53.6229 14.4289 53.6229 13.2747C53.6229 12.0925 53.21 11.3594 52.3051 10.9348C51.8304 10.7121 51.1433 10.668 50.5939 10.8252ZM14.0832 16.4338C13.1697 16.7095 12.6539 17.3938 12.6539 18.3297C12.6539 18.8956 12.7599 19.1603 13.1642 19.6044C13.559 20.0382 13.6911 20.1137 14.2297 20.2135C15.3299 20.4175 16.3469 19.6847 16.5286 18.5571C16.7368 17.2649 15.3419 16.0538 14.0832 16.4338Z" fill="#0F477B"/>
</g>
<defs>
<clipPath id="clip0_4001_27857">
<rect width="103.636" height="24" fill="white"/>
</clipPath>
</defs>
</svg>
